<svg width="337" height="392" viewBox="0 0 337 392" fill="none" xmlns="http://www.w3.org/2000/svg">
<path d="M120.474 49.1912L8.80123 148.027C3.36809 152.835 0.96524 160.209 2.52229 167.295L35.598 317.829C37.0323 324.356 41.632 329.736 47.8574 332.167L189.919 387.639C196.795 390.323 204.59 389.003 210.198 384.203L326.489 284.674C332.814 279.261 335.124 270.497 332.29 262.67L283.035 126.645C281.347 121.984 277.988 118.115 273.609 115.79L143.108 46.5033C135.741 42.5919 126.72 43.6632 120.474 49.1912Z" fill="#0193F3"/>
<path d="M185 201.5L137.5 70.5L259.5 138L308 269.5L185 201.5Z" fill="white"/>
<path d="M178 222L70 316.5L201 366L290.5 286.5L178 222Z" fill="#FFFBC0"/>
<path d="M76 35.5L74 16L87.5 31L107 29L93 42V61.5L81 47.5H61.5L76 35.5Z" fill="#0193F3"/>
<path d="M45.6923 33L44.7692 24L51 30.9231L60 30L53.5385 36V45L48 38.5385H39L45.6923 33Z" fill="#0193F3"/>
<path d="M100.692 9L99.7692 0L106 6.92308L115 6L108.538 12V21L103 14.5385H94L100.692 9Z" fill="#0193F3"/>
<path d="M179.692 41L178.769 32L185 38.9231L194 38L187.538 44V53L182 46.5385H173L179.692 41Z" fill="#0193F3"/>
</svg>
