<svg width="968" height="288" viewBox="0 0 968 288" fill="none" xmlns="http://www.w3.org/2000/svg">
<path d="M85.5266 38.5087L8.80123 106.414C3.36809 111.223 0.96524 118.596 2.52229 125.683L25.4781 230.158C26.9123 236.686 31.5121 242.066 37.7375 244.496L136.216 282.95C143.092 285.635 150.887 284.314 156.495 279.515L236.489 211.051C242.814 205.638 245.124 196.874 242.29 189.047L208.147 94.7574C206.459 90.0957 203.1 86.2271 198.721 83.9021L108.16 35.8208C100.793 31.9094 91.7725 32.9807 85.5266 38.5087Z" fill="#0193F3"/>
<path d="M135.593 147.687L100.779 51.6721L190.197 101.145L225.745 197.527L135.593 147.687Z" fill="white"/>
<path d="M130.463 162.712L51.3056 231.975L147.32 268.255L212.918 209.987L130.463 162.712Z" fill="#FFFBC0"/>
<path d="M55.7033 26.0193L54.2374 11.727L64.132 22.7211L78.4243 21.2552L68.1632 30.7834V45.0757L59.368 34.8145H45.0757L55.7033 26.0193Z" fill="#0193F3"/>
<path d="M33.4896 24.187L32.8131 17.5905L37.3798 22.6647L43.9763 21.9881L39.2403 26.3858V32.9822L35.181 28.2463H28.5846L33.4896 24.187Z" fill="#0193F3"/>
<path d="M73.8012 6.59644L73.1246 0L77.6914 5.07418L84.2878 4.39763L79.5519 8.79525V15.3917L75.4926 10.6558H68.8961L73.8012 6.59644Z" fill="#0193F3"/>
<path d="M131.703 30.0504L131.027 23.454L135.593 28.5282L142.19 27.8516L137.454 32.2493V38.8457L133.395 34.1098H126.798L131.703 30.0504Z" fill="#0193F3"/>
<rect x="306" y="171" width="662" height="67" fill="#FFFBC0"/>
<path d="M361.148 114.625L384 185.852L406.781 114.625H439.266V217H414.516V193.094L416.906 144.156L392.156 217H375.844L351.023 144.086L353.414 193.094V217H328.734V114.625H361.148ZM514.43 197.875H480.609L474.703 217H448.336L485.883 114.625H509.086L546.914 217H520.406L514.43 197.875ZM486.516 178.82H508.523L497.484 143.312L486.516 178.82ZM595.219 114.625H619.828V184.867C619.828 191.383 618.305 197.195 615.258 202.305C612.258 207.414 608.039 211.375 602.602 214.188C597.211 217 591.188 218.406 584.531 218.406C573.375 218.406 564.703 215.594 558.516 209.969C552.328 204.344 549.234 196.375 549.234 186.062H573.984C573.984 190.75 574.781 194.148 576.375 196.258C578.016 198.367 580.734 199.422 584.531 199.422C587.953 199.422 590.578 198.156 592.406 195.625C594.281 193.047 595.219 189.461 595.219 184.867V114.625ZM661.734 217H637.125V114.625H661.734V217ZM713.695 178.891L703.57 190V217H678.891V114.625H703.57V159.766L712.148 146.758L734.227 114.625H764.742L730.148 159.906L764.742 217H735.492L713.695 178.891ZM805.805 178.891L795.68 190V217H771V114.625H795.68V159.766L804.258 146.758L826.336 114.625H856.852L822.258 159.906L856.852 217H827.602L805.805 178.891ZM943.406 114.625V181.633C943.406 189.227 941.789 195.812 938.555 201.391C935.32 206.922 930.68 211.141 924.633 214.047C918.586 216.953 911.438 218.406 903.188 218.406C890.719 218.406 880.898 215.172 873.727 208.703C866.555 202.234 862.898 193.375 862.758 182.125V114.625H887.578V182.617C887.859 193.82 893.062 199.422 903.188 199.422C908.297 199.422 912.164 198.016 914.789 195.203C917.414 192.391 918.727 187.82 918.727 181.492V114.625H943.406Z" fill="#0193F3"/>
</svg>
